<mxfile host="Electron" agent="Mozilla/5.0 (X11; Linux x86_64) AppleWebKit/537.36 (KHTML, like Gecko) draw.io/24.7.17 Chrome/128.0.6613.36 Electron/32.0.1 Safari/537.36" version="24.7.17">
  <diagram name="Page-1" id="KZWZnpO4rTqJL-7uYsIb">
    <mxGraphModel dx="1434" dy="835" grid="1" gridSize="10" guides="1" tooltips="1" connect="1" arrows="1" fold="1" page="1" pageScale="1" pageWidth="850" pageHeight="1100" math="0" shadow="0">
      <root>
        <mxCell id="0" />
        <mxCell id="1" parent="0" />
        <mxCell id="UcAC2hVhvCLdmwBAwJA8-27" style="edgeStyle=orthogonalEdgeStyle;rounded=0;orthogonalLoop=1;jettySize=auto;html=1;entryX=0.5;entryY=0;entryDx=0;entryDy=0;" edge="1" parent="1" source="UcAC2hVhvCLdmwBAwJA8-18" target="UcAC2hVhvCLdmwBAwJA8-22">
          <mxGeometry relative="1" as="geometry">
            <Array as="points">
              <mxPoint x="160" y="65" />
              <mxPoint x="360" y="65" />
            </Array>
          </mxGeometry>
        </mxCell>
        <mxCell id="UcAC2hVhvCLdmwBAwJA8-30" value="&lt;font style=&quot;font-size: 16px;&quot;&gt;1&lt;/font&gt;" style="edgeLabel;html=1;align=center;verticalAlign=middle;resizable=0;points=[];" vertex="1" connectable="0" parent="UcAC2hVhvCLdmwBAwJA8-27">
          <mxGeometry x="-0.7943" relative="1" as="geometry">
            <mxPoint as="offset" />
          </mxGeometry>
        </mxCell>
        <mxCell id="UcAC2hVhvCLdmwBAwJA8-31" value="&lt;font style=&quot;font-size: 16px;&quot;&gt;*&lt;/font&gt;" style="edgeLabel;html=1;align=center;verticalAlign=middle;resizable=0;points=[];" vertex="1" connectable="0" parent="UcAC2hVhvCLdmwBAwJA8-27">
          <mxGeometry x="0.7486" y="-3" relative="1" as="geometry">
            <mxPoint x="3" y="12" as="offset" />
          </mxGeometry>
        </mxCell>
        <mxCell id="UcAC2hVhvCLdmwBAwJA8-18" value="&lt;font style=&quot;font-size: 18px;&quot;&gt;Zákazník&lt;/font&gt;&lt;div style=&quot;&quot;&gt;&lt;font style=&quot;font-size: 12px;&quot;&gt;+ID&lt;/font&gt;&lt;/div&gt;&lt;div&gt;+jméno&lt;/div&gt;&lt;div&gt;+e-mail&lt;/div&gt;&lt;div&gt;+adresa&lt;/div&gt;" style="rounded=0;whiteSpace=wrap;html=1;" vertex="1" parent="1">
          <mxGeometry x="80" y="150" width="160" height="110" as="geometry" />
        </mxCell>
        <mxCell id="UcAC2hVhvCLdmwBAwJA8-38" style="edgeStyle=orthogonalEdgeStyle;rounded=0;orthogonalLoop=1;jettySize=auto;html=1;entryX=0.5;entryY=0;entryDx=0;entryDy=0;" edge="1" parent="1" source="UcAC2hVhvCLdmwBAwJA8-21" target="UcAC2hVhvCLdmwBAwJA8-25">
          <mxGeometry relative="1" as="geometry" />
        </mxCell>
        <mxCell id="UcAC2hVhvCLdmwBAwJA8-39" value="&lt;font style=&quot;font-size: 16px;&quot;&gt;1&lt;/font&gt;" style="edgeLabel;html=1;align=center;verticalAlign=middle;resizable=0;points=[];" vertex="1" connectable="0" parent="UcAC2hVhvCLdmwBAwJA8-38">
          <mxGeometry x="-0.7821" y="-1" relative="1" as="geometry">
            <mxPoint y="11" as="offset" />
          </mxGeometry>
        </mxCell>
        <mxCell id="UcAC2hVhvCLdmwBAwJA8-40" value="&lt;font style=&quot;font-size: 16px;&quot;&gt;*&lt;/font&gt;" style="edgeLabel;html=1;align=center;verticalAlign=middle;resizable=0;points=[];" vertex="1" connectable="0" parent="UcAC2hVhvCLdmwBAwJA8-38">
          <mxGeometry x="0.5179" relative="1" as="geometry">
            <mxPoint y="-11" as="offset" />
          </mxGeometry>
        </mxCell>
        <mxCell id="UcAC2hVhvCLdmwBAwJA8-21" value="&lt;font style=&quot;font-size: 18px;&quot;&gt;Produkt&lt;/font&gt;&lt;div&gt;+ID&lt;/div&gt;&lt;div&gt;+název&lt;/div&gt;&lt;div&gt;+cena&lt;/div&gt;&lt;div&gt;+popis&lt;/div&gt;&lt;div&gt;+skladová dostupnost&lt;/div&gt;" style="rounded=0;whiteSpace=wrap;html=1;" vertex="1" parent="1">
          <mxGeometry x="265" y="300" width="190" height="120" as="geometry" />
        </mxCell>
        <mxCell id="UcAC2hVhvCLdmwBAwJA8-32" style="edgeStyle=orthogonalEdgeStyle;rounded=0;orthogonalLoop=1;jettySize=auto;html=1;entryX=0.5;entryY=0;entryDx=0;entryDy=0;endArrow=diamondThin;endFill=1;jumpSize=10;endSize=12;" edge="1" parent="1" source="UcAC2hVhvCLdmwBAwJA8-22" target="UcAC2hVhvCLdmwBAwJA8-21">
          <mxGeometry relative="1" as="geometry" />
        </mxCell>
        <mxCell id="UcAC2hVhvCLdmwBAwJA8-33" value="&lt;font style=&quot;font-size: 16px;&quot;&gt;1&lt;/font&gt;" style="edgeLabel;html=1;align=center;verticalAlign=middle;resizable=0;points=[];" vertex="1" connectable="0" parent="UcAC2hVhvCLdmwBAwJA8-32">
          <mxGeometry x="-0.8286" relative="1" as="geometry">
            <mxPoint y="13" as="offset" />
          </mxGeometry>
        </mxCell>
        <mxCell id="UcAC2hVhvCLdmwBAwJA8-34" value="&lt;font style=&quot;font-size: 16px;&quot;&gt;*&lt;/font&gt;" style="edgeLabel;html=1;align=center;verticalAlign=middle;resizable=0;points=[];" vertex="1" connectable="0" parent="UcAC2hVhvCLdmwBAwJA8-32">
          <mxGeometry x="0.76" relative="1" as="geometry">
            <mxPoint y="-20" as="offset" />
          </mxGeometry>
        </mxCell>
        <mxCell id="UcAC2hVhvCLdmwBAwJA8-36" style="edgeStyle=orthogonalEdgeStyle;rounded=0;orthogonalLoop=1;jettySize=auto;html=1;exitX=1;exitY=0.75;exitDx=0;exitDy=0;entryX=0.5;entryY=0;entryDx=0;entryDy=0;endArrow=diamondThin;endFill=1;endSize=12;" edge="1" parent="1" source="UcAC2hVhvCLdmwBAwJA8-22" target="UcAC2hVhvCLdmwBAwJA8-23">
          <mxGeometry relative="1" as="geometry" />
        </mxCell>
        <mxCell id="UcAC2hVhvCLdmwBAwJA8-37" style="edgeStyle=orthogonalEdgeStyle;rounded=0;orthogonalLoop=1;jettySize=auto;html=1;exitX=1;exitY=0.25;exitDx=0;exitDy=0;entryX=0.5;entryY=1;entryDx=0;entryDy=0;endArrow=diamondThin;endFill=1;startSize=6;endSize=12;" edge="1" parent="1" source="UcAC2hVhvCLdmwBAwJA8-22" target="UcAC2hVhvCLdmwBAwJA8-24">
          <mxGeometry relative="1" as="geometry" />
        </mxCell>
        <mxCell id="UcAC2hVhvCLdmwBAwJA8-42" style="edgeStyle=orthogonalEdgeStyle;rounded=0;orthogonalLoop=1;jettySize=auto;html=1;exitX=1.003;exitY=0.892;exitDx=0;exitDy=0;entryX=0.5;entryY=0;entryDx=0;entryDy=0;exitPerimeter=0;" edge="1" parent="1" source="UcAC2hVhvCLdmwBAwJA8-22" target="UcAC2hVhvCLdmwBAwJA8-26">
          <mxGeometry relative="1" as="geometry" />
        </mxCell>
        <mxCell id="UcAC2hVhvCLdmwBAwJA8-22" value="&lt;font style=&quot;font-size: 18px;&quot;&gt;Objednávka&lt;/font&gt;&lt;div&gt;+ID&lt;/div&gt;&lt;div&gt;+datum&lt;/div&gt;&lt;div&gt;+stav&lt;/div&gt;&lt;div&gt;+celková cena&lt;/div&gt;" style="rounded=0;whiteSpace=wrap;html=1;" vertex="1" parent="1">
          <mxGeometry x="260" y="110" width="200" height="110" as="geometry" />
        </mxCell>
        <mxCell id="UcAC2hVhvCLdmwBAwJA8-23" value="&lt;font style=&quot;font-size: 18px;&quot;&gt;Platba&lt;/font&gt;&lt;div&gt;+ID&lt;/div&gt;&lt;div&gt;+částka&lt;/div&gt;&lt;div&gt;+způsob platby&lt;/div&gt;" style="rounded=0;whiteSpace=wrap;html=1;" vertex="1" parent="1">
          <mxGeometry x="660" y="230" width="180" height="110" as="geometry" />
        </mxCell>
        <mxCell id="UcAC2hVhvCLdmwBAwJA8-24" value="&lt;font style=&quot;font-size: 18px;&quot;&gt;Doručení&lt;/font&gt;&lt;div style=&quot;font-size: 13px;&quot;&gt;+ID&lt;/div&gt;&lt;div&gt;+způsob doručení&lt;/div&gt;" style="rounded=0;whiteSpace=wrap;html=1;" vertex="1" parent="1">
          <mxGeometry x="520" y="10" width="170" height="80" as="geometry" />
        </mxCell>
        <mxCell id="UcAC2hVhvCLdmwBAwJA8-25" value="&lt;font style=&quot;font-size: 18px;&quot;&gt;Recenze&lt;/font&gt;&lt;div&gt;+hodnocení&lt;/div&gt;&lt;div&gt;+text recenze&lt;/div&gt;" style="rounded=0;whiteSpace=wrap;html=1;" vertex="1" parent="1">
          <mxGeometry x="275" y="500" width="170" height="80" as="geometry" />
        </mxCell>
        <mxCell id="UcAC2hVhvCLdmwBAwJA8-26" value="&lt;font style=&quot;font-size: 18px;&quot;&gt;Slevový kupón&lt;/font&gt;&lt;div style=&quot;&quot;&gt;&lt;font style=&quot;font-size: 12px;&quot;&gt;+kód&lt;/font&gt;&lt;/div&gt;&lt;div style=&quot;&quot;&gt;+sleva&lt;/div&gt;" style="rounded=0;whiteSpace=wrap;html=1;" vertex="1" parent="1">
          <mxGeometry x="480" y="280" width="150" height="80" as="geometry" />
        </mxCell>
      </root>
    </mxGraphModel>
  </diagram>
</mxfile>
